<svg version="1.1" id="Layer_1" xmlns="http://www.w3.org/2000/svg" xmlns:xlink="http://www.w3.org/1999/xlink" x="0px" y="0px"
	 width="100%" viewBox="0 0 80 80" enable-background="new 0 0 80 80" xml:space="preserve">
<path fill="#000100" opacity="0.000000" stroke="none" 
	d="
M47.000000,81.000000 
	C31.333334,81.000000 16.166666,81.000000 1.000000,81.000000 
	C1.000000,54.333332 1.000000,27.666666 1.000000,1.000000 
	C27.666666,1.000000 54.333332,1.000000 81.000000,1.000000 
	C81.000000,27.666666 81.000000,54.333332 81.000000,81.000000 
	C69.833336,81.000000 58.666668,81.000000 47.000000,81.000000 
M26.042315,8.277451 
	C25.714890,9.799607 25.127192,11.317738 25.103575,12.844594 
	C24.978861,20.906586 24.996269,28.970778 24.033051,36.995800 
	C18.436384,36.995800 12.839719,36.995800 7.237932,36.995800 
	C7.237932,48.584923 7.237932,59.644714 7.237932,70.803589 
	C30.195274,70.803589 52.907066,70.803589 75.647369,70.803589 
	C75.647369,59.418201 75.647369,48.240204 75.647369,37.223873 
	C66.146721,37.223873 57.006451,37.223873 47.794979,36.704895 
	C53.600464,33.218014 59.405945,29.731131 65.802200,25.889420 
	C53.455616,18.674572 42.027561,11.892157 30.474392,5.330014 
	C28.055923,3.956336 26.842079,5.589272 26.042315,8.277451 
z"/>
<path fill="#FBFBFB" opacity="1.000000" stroke="none" 
	d="
M47.866177,37.223873 
	C57.006451,37.223873 66.146721,37.223873 75.647369,37.223873 
	C75.647369,48.240204 75.647369,59.418201 75.647369,70.803589 
	C52.907066,70.803589 30.195274,70.803589 7.237932,70.803589 
	C7.237932,59.644714 7.237932,48.584923 7.237932,36.995800 
	C12.839719,36.995800 18.436384,36.995800 24.555578,37.429646 
	C23.825596,38.282295 22.601480,38.912136 21.315895,39.085106 
	C13.872102,40.086628 9.392454,44.114128 8.339197,51.398365 
	C7.505567,57.163681 8.794160,62.537773 13.781902,66.023270 
	C20.019165,70.381966 26.672724,69.562599 33.168766,66.336319 
	C38.593399,63.642155 35.080166,58.634949 36.014412,54.773571 
	C36.114494,54.359909 35.855152,53.859291 35.727501,53.224831 
	C31.568060,53.224831 27.495640,53.224831 23.307472,53.224831 
	C23.307472,54.850956 23.307472,56.246479 23.307472,57.804878 
	C25.637579,57.953396 27.742800,58.087578 29.841606,58.221352 
	C29.663424,62.467766 27.114225,64.296638 22.119598,63.967773 
	C16.694742,63.610580 13.535147,58.977314 14.175029,52.317760 
	C14.758210,46.248322 18.227001,43.668209 24.960094,44.513393 
	C25.071678,46.241459 25.186502,48.019718 25.299482,49.769424 
	C30.059626,48.390278 35.651249,48.872231 37.899803,42.735733 
	C39.038567,41.955696 39.973881,41.431831 41.260300,41.171482 
	C41.611401,50.533070 41.611401,59.631145 41.611401,69.050980 
	C44.194656,68.937317 45.921055,68.861359 47.914047,68.773666 
	C47.914047,59.415943 47.961296,50.444729 47.855793,41.475311 
	C47.842213,40.320614 47.036358,39.175236 46.812607,38.032101 
	C47.307194,37.767063 47.586685,37.495468 47.866177,37.223873 
M65.575333,44.007832 
	C68.500839,44.007832 71.426338,44.007832 74.674149,44.007832 
	C74.499435,41.937538 74.382111,40.547234 74.284470,39.390251 
	C67.324654,39.390251 60.785526,39.390251 54.329224,39.390251 
	C54.329224,49.370380 54.329224,58.950962 54.329224,68.767525 
	C56.254917,68.767525 57.973534,68.767525 60.128269,68.767525 
	C60.128269,64.513252 60.128269,60.439003 60.128269,55.935089 
	C64.449608,55.935089 68.355377,55.935089 72.317734,55.935089 
	C72.317734,54.086002 72.317734,52.698277 72.317734,50.862350 
	C68.124634,50.862350 64.216698,50.862350 60.202724,50.862350 
	C60.202724,48.469254 60.202724,46.528202 60.202724,44.255157 
	C61.742142,44.169212 63.187321,44.088528 65.575333,44.007832 
z"/>
<path fill="#00AC3B" opacity="1.000000" stroke="none" 
	d="
M47.830578,36.964386 
	C47.586685,37.495468 47.307194,37.767063 46.428413,38.022705 
	C44.189144,38.973824 42.549171,39.940895 40.909195,40.907967 
	C39.973881,41.431831 39.038567,41.955696 37.508049,42.746418 
	C30.470186,42.908554 26.959246,39.542763 26.934607,33.498325 
	C26.900087,25.029949 26.836887,16.561686 26.785954,8.093374 
	C26.842079,5.589272 28.055923,3.956336 30.474392,5.330014 
	C42.027561,11.892157 53.455616,18.674572 65.802200,25.889420 
	C59.405945,29.731131 53.600464,33.218014 47.830578,36.964386 
z"/>
<path fill="#293329" opacity="1.000000" stroke="none" 
	d="
M26.414135,8.185412 
	C26.836887,16.561686 26.900087,25.029949 26.934607,33.498325 
	C26.959246,39.542763 30.470186,42.908554 37.304600,43.002594 
	C35.651249,48.872231 30.059626,48.390278 25.299482,49.769424 
	C25.186502,48.019718 25.071678,46.241459 24.960094,44.513393 
	C18.227001,43.668209 14.758210,46.248322 14.175029,52.317760 
	C13.535147,58.977314 16.694742,63.610580 22.119598,63.967773 
	C27.114225,64.296638 29.663424,62.467766 29.841606,58.221352 
	C27.742800,58.087578 25.637579,57.953396 23.307472,57.804878 
	C23.307472,56.246479 23.307472,54.850956 23.307472,53.224831 
	C27.495640,53.224831 31.568060,53.224831 35.727501,53.224831 
	C35.855152,53.859291 36.114494,54.359909 36.014412,54.773571 
	C35.080166,58.634949 38.593399,63.642155 33.168766,66.336319 
	C26.672724,69.562599 20.019165,70.381966 13.781902,66.023270 
	C8.794160,62.537773 7.505567,57.163681 8.339197,51.398365 
	C9.392454,44.114128 13.872102,40.086628 21.315895,39.085106 
	C22.601480,38.912136 23.825596,38.282295 25.021244,37.448849 
	C24.996269,28.970778 24.978861,20.906586 25.103575,12.844594 
	C25.127192,11.317738 25.714890,9.799607 26.414135,8.185412 
z"/>
<path fill="#2E2E2E" opacity="1.000000" stroke="none" 
	d="
M65.103912,44.007835 
	C63.187321,44.088528 61.742142,44.169212 60.202724,44.255157 
	C60.202724,46.528202 60.202724,48.469254 60.202724,50.862350 
	C64.216698,50.862350 68.124634,50.862350 72.317734,50.862350 
	C72.317734,52.698277 72.317734,54.086002 72.317734,55.935089 
	C68.355377,55.935089 64.449608,55.935089 60.128269,55.935089 
	C60.128269,60.439003 60.128269,64.513252 60.128269,68.767525 
	C57.973534,68.767525 56.254917,68.767525 54.329224,68.767525 
	C54.329224,58.950962 54.329224,49.370380 54.329224,39.390251 
	C60.785526,39.390251 67.324654,39.390251 74.284470,39.390251 
	C74.382111,40.547234 74.499435,41.937538 74.674149,44.007832 
	C71.426338,44.007832 68.500839,44.007832 65.103912,44.007835 
z"/>
<path fill="#2C2D2C" opacity="1.000000" stroke="none" 
	d="
M41.260300,41.171482 
	C42.549171,39.940895 44.189144,38.973824 46.213318,38.016148 
	C47.036358,39.175236 47.842213,40.320614 47.855793,41.475311 
	C47.961296,50.444729 47.914047,59.415943 47.914047,68.773666 
	C45.921055,68.861359 44.194656,68.937317 41.611401,69.050980 
	C41.611401,59.631145 41.611401,50.533070 41.260300,41.171482 
z"/>
</svg>